HIERARCHY
ROOT Hips
{
	OFFSET 0.000000 0.000000 0.000000 
	CHANNELS 6 Xposition Yposition Zposition Yrotation Zrotation Xrotation 
	JOINT Lumbar
	{
		OFFSET 0.000000 0.000000 0.000000 
		CHANNELS 3 Zrotation Xrotation Yrotation
		JOINT Neck
		{
			OFFSET 0.000000 0.445665 0.000000 
			CHANNELS 3 Zrotation Xrotation Yrotation
			End Site
			{
				OFFSET 0.000000 0.227535 0.000000 
			}
		}
		JOINT RightShoulder
		{
			OFFSET 0.019635 0.377685 0.194865 
			CHANNELS 3 Zrotation Xrotation Yrotation
			JOINT RightElbow
			{
				OFFSET 0.000000 -0.243375 0.000000 
				CHANNELS 2 Zrotation Yrotation
				JOINT RightWrist
				{
					OFFSET 0.000000 -0.264825 0.000000 
					CHANNELS 2 Zrotation Xrotation
					End Site
					{
						OFFSET 0.006600 -0.176220 0.000990 
					}
				}
			}
		}
		JOINT LeftShoulder
		{
			OFFSET 0.019635 0.377685 -0.194865 
			CHANNELS 3 Zrotation Xrotation Yrotation
			JOINT LeftElbow
			{
				OFFSET 0.000000 -0.243375 0.000000 
				CHANNELS 2 Zrotation Yrotation
				JOINT LeftWrist
				{
					OFFSET 0.000000 -0.264825 0.000000 
					CHANNELS 2 Zrotation Xrotation
					End Site
					{
						OFFSET 0.006600 -0.176220 -0.000990 
					}
				}
			}
		}
	}
	JOINT RightHip
	{
		OFFSET 0.052140 -0.069960 0.075570 
		CHANNELS 3 Zrotation Xrotation Yrotation
		JOINT RightKnee
		{
			OFFSET 0.000000 -0.402270 0.000000 
			CHANNELS 1 Zrotation
			JOINT RightAnkle
			{
				OFFSET 0.000000 -0.404085 0.000000 
				CHANNELS 3 Zrotation Xrotation Yrotation
				End Site
				{
					OFFSET 0.204105 -0.089430 0.008415 
				}
			}
		}
	}
	JOINT LeftHip
	{
		OFFSET 0.052140 -0.069960 -0.075570 
		CHANNELS 3 Zrotation Xrotation Yrotation
		JOINT LeftKnee
		{
			OFFSET 0.000000 -0.402270 0.000000 
			CHANNELS 1 Zrotation
			JOINT LeftAnkle
			{
				OFFSET 0.000000 -0.404085 0.000000 
				CHANNELS 3 Zrotation Xrotation Yrotation
				End Site
				{
					OFFSET 0.204105 -0.089430 -0.008415 
				}
			}
		}
	}
}
MOTION
Frames: 14
Frame Time: 0.02
0.11659 0.97091 0.60071 193.91647 0 -8.35683 1.4914 8.85199 7.68813 -16.8505 -4.3047 0.9368 1.32085 -11.26302 14.99344 75.89018 84.43409 -52.11615 -3.26918 -19.40134 107.51319 59.78091 27.94444 -70.47729 -48.36999 2.02829 0.76426 -2.76434 -4.4893 -20.94627 -11.25604 -1.65723 -12.18714 -1.54508 2.52699 16.28626 -7.05595 7.47791 6.11551 10.44686
0.11647 0.97093 0.60157 194.09796 0 -8.37764 1.33095 8.89927 7.58138 -16.33158 -3.73711 1.39117 0.6718 -12.04122 14.98767 76.40288 83.74335 -52.04215 -3.21401 -21.4164 106.89836 60.14325 28.12348 -69.05308 -48.61307 1.88988 0.70383 -2.77951 -4.57203 -20.94873 -11.33748 -1.64203 -12.21194 -1.5038 2.51394 16.13119 -7.15851 7.48941 6.13992 10.48589
0.11634 0.97084 0.60244 194.3212 0 -8.37231 1.19332 8.88821 7.49566 -16.1618 -3.25194 1.75596 0.37079 -12.75224 15.06487 76.84372 83.05883 -51.99064 -3.16447 -22.93 106.14936 60.95115 29.1871 -67.81011 -48.55359 1.76329 0.61154 -2.80809 -4.63692 -20.93056 -11.36402 -1.63358 -12.28995 -1.46815 2.47339 15.95507 -7.24828 7.51403 6.16226 10.51334
0.1162 0.9708 0.6033 194.53145 0 -8.37983 1.04795 8.90468 7.3971 -15.84355 -2.73618 2.15239 -0.07189 -13.48459 15.10911 77.30878 82.39784 -51.92898 -3.11437 -24.60449 105.46973 61.50573 29.82895 -66.52862 -48.64577 1.63595 0.52871 -2.82755 -4.70761 -20.91765 -11.41706 -1.62151 -12.34723 -1.43263 2.44682 15.78401 -7.34007 7.53133 6.18461 10.54395
0.11613 0.97075 0.60418 194.7169 0 -8.38354 0.88904 8.91694 7.30902 -15.47915 -2.18558 2.59295 -0.58968 -14.26448 15.13278 77.81616 81.62004 -51.86434 -3.05523 -26.51407 104.72657 62.21466 30.59927 -65.06605 -48.7177 1.4899 0.4671 -2.85982 -4.78807 -20.92211 -11.46466 -1.6116 -12.38957 -1.38581 2.41403 15.63102 -7.44768 7.5538 6.21131 10.58373
0.11591 0.9707 0.60501 194.96324 0 -8.38883 0.76433 8.92402 7.20585 -15.29449 -1.72934 2.91869 -0.86762 -14.92539 15.21733 78.21625 81.08708 -51.81251 -3.0163 -27.83353 104.09401 62.73151 31.29713 -64.02126 -48.7457 1.38524 0.3545 -2.86887 -4.84445 -20.88644 -11.5101 -1.59892 -12.475 -1.36357 2.38763 15.43609 -7.51976 7.56895 6.22838 10.60179
0.11528 0.97069 0.60568 195.37354 0 -8.4053 0.73275 8.9319 7.0504 -15.52708 -1.51406 2.94137 -0.55121 -15.28229 15.47328 78.33104 81.25455 -51.78774 -3.03422 -27.64242 103.80776 62.60328 31.54937 -64.09712 -48.71499 1.39305 0.09925 -2.80673 -4.8323 -20.73321 -11.56346 -1.57617 -12.67634 -1.41124 2.38584 15.12672 -7.49201 7.55917 6.21822 10.55967
0.11451 0.97069 0.60628 195.84243 0 -8.42413 0.73442 8.93644 6.88048 -15.92791 -1.39167 2.85211 -0.00748 -15.51918 15.78388 78.34036 81.66468 -51.7759 -3.07196 -26.88235 103.64007 62.27585 31.69655 -64.58459 -48.64697 1.4418 -0.20451 -2.72141 -4.7976 -20.54236 -11.61633 -1.55057 -12.91754 -1.48285 2.39138 14.77676 -7.4298 7.54191 6.19859 10.49658
0.11381 0.97069 0.60691 196.28068 0 -8.44155 0.71843 8.94193 6.72121 -16.24798 -1.22717 2.81839 0.4217 -15.80449 16.054 78.40151 81.94766 -51.76041 -3.09916 -26.39182 103.41693 62.052 31.90441 -64.87573 -48.59763 1.471 -0.47995 -2.64912 -4.7774 -20.37628 -11.66898 -1.52679 -13.13415 -1.54127 2.39341 14.44784 -7.3865 7.52912 6.18397 10.44504
0.11307 0.97068 0.60756 196.73782 0 -8.4595 0.71386 8.94773 6.54542 -16.59803 -1.06481 2.76204 0.9097 -16.11321 16.39185 78.44457 82.30125 -51.73651 -3.13298 -25.83601 103.19516 61.78788 32.0904 -65.21244 -48.53079 1.50461 -0.78315 -2.56676 -4.73882 -20.17704 -11.72158 -1.501 -13.37995 -1.60963 2.39526 14.10685 -7.32907 7.51228 6.16628 10.38464
0.11239 0.97068 0.60815 197.16841 0 -8.47724 0.69321 8.95293 6.40035 -16.92142 -0.91922 2.72726 1.32546 -16.3458 16.60202 78.50025 82.56623 -51.7326 -3.1577 -25.28852 103.00059 61.55427 32.28403 -65.54954 -48.49582 1.53862 -1.03942 -2.49969 -4.73318 -20.03827 -11.7749 -1.47864 -13.57372 -1.66293 2.39959 13.78213 -7.29301 7.50192 6.15277 10.33778
0.11193 0.9707 0.60861 197.51583 0 -8.49385 0.61912 8.9568 6.34346 -17.12532 -0.79538 2.7807 1.47775 -16.39514 16.43334 78.6247 82.51986 -51.78346 -3.152 -24.901 102.85363 61.45801 32.52922 -65.7859 -48.55347 1.56351 -1.15596 -2.48042 -4.82584 -20.07525 -11.83019 -1.46637 -13.61403 -1.66839 2.40899 13.50827 -7.32497 7.51133 6.15304 10.33413
0.11154 0.97073 0.60901 197.83334 0 -8.51026 0.52773 8.96051 6.31789 -17.29566 -0.68514 2.85991 1.54923 -16.37287 16.13641 78.76446 82.37733 -51.85337 -3.13653 -24.54467 102.7303 61.39643 32.78027 -66.00714 -48.64661 1.58732 -1.22308 -2.47727 -4.95206 -20.17453 -11.88645 -1.45762 -13.60046 -1.65792 2.42072 13.25314 -7.37958 7.52748 6.15788 10.34477
0.11112 0.97075 0.60943 198.16157 0 -8.52692 0.44478 8.965 6.27804 -17.48276 -0.56955 2.92694 1.66155 -16.38515 15.90614 78.89208 82.28352 -51.9126 -3.12575 -24.17812 102.59611 61.31409 33.02091 -66.23588 -48.72798 1.6118 -1.31157 -2.46672 -5.06199 -20.24568 -11.9427 -1.44725 -13.61118 -1.65499 2.43154 12.99204 -7.42351 7.54043 6.16066 10.34848
